<svg width="156" height="40" viewBox="0 0 156 40" fill="none" xmlns="http://www.w3.org/2000/svg">
<path d="M2.91916 33.1846V20.6393H0.722656V16.0487H2.91916V9.48828H7.67371V16.0487H11.313V20.6393H7.6703V33.1846H2.91916Z" fill="black"/>
<path d="M12.0664 24.6136C12.0664 23.3906 12.3017 22.2224 12.7792 21.1124C13.2533 20.0024 13.915 19.0261 14.7677 18.1867C15.617 17.3474 16.6129 16.6965 17.7487 16.2306C18.8844 15.7681 20.085 15.5352 21.3436 15.5352C22.5817 15.5352 23.7686 15.7681 24.9044 16.2306C26.0401 16.6965 27.0395 17.3474 27.9024 18.1867C28.7653 19.0261 29.4304 19.999 29.9079 21.1124C30.382 22.2224 30.6207 23.3906 30.6207 24.6136C30.6207 25.8366 30.382 27.0048 29.9079 28.1147C29.4338 29.2247 28.7653 30.2011 27.9024 31.0404C27.0395 31.8797 26.0401 32.5306 24.9044 32.9965C23.7652 33.4624 22.5783 33.692 21.3436 33.692C20.085 33.692 18.8879 33.459 17.7487 32.9965C16.6095 32.5306 15.617 31.8797 14.7677 31.0404C13.9184 30.2011 13.2533 29.2281 12.7792 28.1147C12.3017 27.0048 12.0664 25.84 12.0664 24.6136ZM17.0017 24.6136C17.0017 25.5214 17.2439 26.347 17.7316 27.0939C18.2159 27.8407 18.7958 28.3648 19.4711 28.6595C20.143 28.9541 20.7672 29.1014 21.3436 29.1014C21.8961 29.1014 22.5134 28.9541 23.199 28.6595C23.8846 28.3648 24.4678 27.8441 24.9555 27.0939C25.4398 26.347 25.6854 25.518 25.6854 24.6136C25.6854 24.0483 25.5422 23.4111 25.2557 22.7088C24.9692 22.0065 24.461 21.4002 23.7311 20.8897C23.0012 20.3793 22.2065 20.1257 21.347 20.1257C20.1328 20.1257 19.1061 20.5608 18.2671 21.4344C17.4212 22.308 17.0017 23.37 17.0017 24.6136Z" fill="black"/>
<path d="M32.0469 24.6136C32.0469 23.3906 32.2856 22.2224 32.7597 21.1124C33.2338 20.0024 33.8989 19.0261 34.7482 18.1867C35.5974 17.3474 36.5934 16.6965 37.7291 16.2306C38.8683 15.7681 40.0655 15.5352 41.324 15.5352C42.5621 15.5352 43.7491 15.7681 44.8882 16.2306C46.0274 16.6965 47.0268 17.3474 47.8863 18.1867C48.7492 19.0261 49.4143 19.999 49.8918 21.1124C50.3659 22.2224 50.6046 23.3906 50.6046 24.6136C50.6046 25.8366 50.3659 27.0048 49.8918 28.1147C49.4177 29.2247 48.7492 30.2011 47.8863 31.0404C47.0234 31.8797 46.024 32.5306 44.8882 32.9965C43.7491 33.4624 42.5621 33.692 41.324 33.692C40.0655 33.692 38.8649 33.459 37.7291 32.9965C36.59 32.5306 35.5974 31.8797 34.7482 31.0404C33.8989 30.2011 33.2338 29.2281 32.7597 28.1147C32.2856 27.0048 32.0469 25.84 32.0469 24.6136ZM36.9856 24.6136C36.9856 25.5214 37.2278 26.347 37.7155 27.0939C38.1998 27.8407 38.7796 28.3648 39.455 28.6595C40.1303 28.9541 40.751 29.1014 41.3274 29.1014C41.88 29.1014 42.4973 28.9541 43.1829 28.6595C43.8684 28.3648 44.4517 27.8441 44.9394 27.0939C45.4237 26.347 45.6693 25.518 45.6693 24.6136C45.6693 24.0483 45.5261 23.4111 45.2395 22.7088C44.953 22.0065 44.4449 21.4002 43.715 20.8897C42.9851 20.3793 42.1904 20.1257 41.3274 20.1257C40.1132 20.1257 39.0832 20.5608 38.2442 21.4344C37.4051 22.308 36.9856 23.37 36.9856 24.6136Z" fill="black"/>
<path d="M54.2473 33.1846V20.6393H52.0508V16.0487H54.2473V9.48828H59.0018V16.0487H62.6411V20.6393H59.0018V33.1846H54.2473Z" fill="black"/>
<path d="M64.7656 33.1846V9.48828H69.7521V18.1248C70.0863 17.3985 70.6832 16.8092 71.5427 16.357C72.4022 15.9048 73.3777 15.6787 74.4691 15.6787C76.4542 15.6787 77.9924 16.3091 79.0872 17.5664C80.1787 18.8236 80.7278 20.5639 80.7278 22.7839V33.1881H75.7413V23.3971C75.7413 22.4002 75.4889 21.6122 74.9876 21.0333C74.4862 20.4543 73.7767 20.1665 72.8627 20.1665C71.9691 20.1665 71.2289 20.4886 70.6389 21.1361C70.0488 21.7835 69.7521 22.592 69.7521 23.5684V33.1915H64.7656V33.1846Z" fill="black"/>
<path d="M85.1085 33.1843V20.6389H82.3867V16.0483H85.1085V15.5722C85.1085 14.2361 85.2654 13.1535 85.5826 12.3245C85.8998 11.4989 86.3841 10.8103 87.0423 10.269C87.5028 9.86132 88.0758 9.54957 88.7614 9.33374C89.4503 9.11792 90.3951 9.01172 91.5957 9.01172C92.2505 9.01172 92.9054 9.06996 93.5636 9.18301V13.4002C93.2806 13.2871 92.786 13.2289 92.0902 13.2289C91.3262 13.2289 90.7566 13.3933 90.3849 13.7222C90.0131 14.0511 89.8289 14.5684 89.8289 15.2707V16.0518H93.1407V20.6424H89.8289V33.1877H85.1085V33.1843Z" fill="black"/>
<path d="M94.6602 24.6151C94.6602 23.4126 94.8682 22.2684 95.2843 21.1824C95.7004 20.093 96.2802 19.144 97.0204 18.3253C97.7639 17.5099 98.6371 16.8761 99.6432 16.4205C100.649 15.9683 101.72 15.7422 102.856 15.7422C103.446 15.7422 104.091 15.821 104.79 15.9786C105.489 16.1362 106.117 16.4274 106.676 16.8453C107.232 17.2667 107.6 17.7463 107.774 18.291V16.0471H112.659V33.183H107.774V30.9391C107.532 31.6654 106.959 32.2717 106.055 32.7582C105.148 33.2447 104.084 33.4879 102.86 33.4879C101.724 33.4879 100.653 33.2618 99.6466 32.8096C98.6405 32.3574 97.7673 31.7202 97.0238 30.9049C96.2802 30.0895 95.7004 29.1371 95.2877 28.0477C94.8682 26.9617 94.6602 25.8175 94.6602 24.6151ZM99.5443 24.6151C99.5443 25.8175 99.9502 26.8316 100.759 27.6572C101.567 28.4862 102.563 28.8973 103.743 28.8973C104.289 28.8973 104.899 28.7569 105.578 28.4725C106.253 28.1882 106.84 27.6914 107.331 26.9754C107.822 26.2629 108.068 25.4749 108.068 24.6116C108.068 23.7517 107.822 22.9638 107.331 22.2478C106.84 21.5352 106.253 21.0351 105.578 20.7507C104.899 20.4664 104.289 20.3259 103.743 20.3259C102.563 20.3259 101.567 20.7405 100.759 21.5661C99.9502 22.402 99.5443 23.416 99.5443 24.6151Z" fill="black"/>
<path d="M118.326 14.5888C117.582 14.5888 116.934 14.3045 116.375 13.7392C115.819 13.174 115.539 12.5025 115.539 11.7317C115.539 10.9403 115.819 10.2586 116.375 9.69335C116.931 9.12809 117.582 8.84375 118.326 8.84375C119.09 8.84375 119.744 9.12809 120.294 9.69335C120.839 10.2586 121.112 10.9403 121.112 11.7317C121.112 12.0948 121.02 12.5025 120.832 12.9547C120.648 13.4069 120.317 13.7941 119.85 14.1092C119.38 14.4278 118.871 14.5888 118.326 14.5888ZM115.901 33.1842V16.0482H120.785V33.1842H115.901Z" fill="black"/>
<path d="M124.062 33.1851V16.0492H129.063V18.3959C129.441 17.536 130.069 16.8645 130.942 16.3884C131.815 15.9122 132.821 15.6758 133.964 15.6758C134.298 15.6758 134.735 15.71 135.274 15.7786V20.537C134.759 20.424 134.199 20.3657 133.595 20.3657C132.187 20.3657 131.078 20.7631 130.273 21.5545C129.468 22.3493 129.066 23.4353 129.066 24.8193V33.1817H124.062V33.1851Z" fill="black"/>
<path d="M143.476 33.4916L136.559 16.0508H141.641L146.034 27.4759L150.491 16.0508H155.573L145.839 39.7814H140.825L143.476 33.4916Z" fill="black"/>
<path d="M47.3761 2.79692C46.3767 2.22138 45.2853 1.92334 44.3542 1.70751C41.0287 0.936702 37.2769 0.54616 32.8839 0.511902C28.1601 0.50505 25.0017 0.690045 21.9969 1.15253L21.8298 1.17994C19.8038 1.49169 17.7096 1.81371 15.8747 2.91682C15.0288 3.42385 14.5615 4.09873 14.5547 4.81473C14.5513 5.54442 15.022 6.23986 15.8849 6.77087C16.683 7.26418 17.6073 7.61704 18.709 7.86027C22.8121 8.75441 27.0277 9.19977 31.431 9.19977C35.0054 9.19977 38.706 8.90515 42.5704 8.31933C44.0609 8.09323 45.7969 7.7438 47.3931 6.86336C48.0651 6.49337 48.8359 5.93154 48.8563 4.87981C48.8802 3.80753 48.1571 3.2457 47.3761 2.79692ZM30.4589 2.76609C30.7045 2.76609 30.9535 2.76609 31.1956 2.76951H31.199C36.0593 2.75581 40.1454 2.96136 44.2109 3.97197C44.6987 4.09188 45.2 4.25632 45.7424 4.46872C45.7935 4.48927 45.8515 4.5064 45.9095 4.52696C46.2233 4.62973 46.3358 4.69482 46.3222 4.85583C46.3154 4.97916 46.1448 5.04768 45.9095 5.1299C45.8549 5.14703 45.8037 5.16758 45.756 5.18471C44.4565 5.70201 43.0206 6.05487 41.2368 6.28782C33.8014 7.27103 27.0004 7.16483 20.4518 5.96922C19.681 5.82877 18.6783 5.61294 17.7233 5.19499C17.6551 5.16416 17.5766 5.14018 17.4982 5.11277C17.2424 5.02712 17.0889 4.96546 17.0855 4.83528C17.0786 4.69825 17.2048 4.63658 17.505 4.53723C17.5732 4.51668 17.6414 4.4927 17.6994 4.46872C19.4593 3.763 21.3352 3.47523 23.2657 3.22172C25.5134 2.92368 28.0407 2.76609 30.4589 2.76609Z" fill="black"/>
</svg>
